<mxfile host="app.diagrams.net" modified="2022-03-02T12:50:12.472Z" agent="5.0 (Macintosh; Intel Mac OS X 10_15_7) AppleWebKit/537.36 (KHTML, like Gecko) Chrome/96.0.4664.110 Safari/537.36" etag="q07pp644pSU3G0z-VbV7" version="16.2.7" type="github">
  <diagram id="VuxoLkEqpru0rD-cJ_hf" name="Page-1">
    <mxGraphModel dx="1018" dy="1759" grid="1" gridSize="10" guides="1" tooltips="1" connect="1" arrows="1" fold="1" page="1" pageScale="1" pageWidth="827" pageHeight="1169" math="0" shadow="0">
      <root>
        <mxCell id="0" />
        <mxCell id="1" parent="0" />
        <mxCell id="TO1YHMDLFjacRHkBEr9m-93" value="" style="verticalLabelPosition=bottom;verticalAlign=top;html=1;shape=mxgraph.basic.polygon;polyCoords=[[0.25,0],[0.75,0],[1,0.25],[1,0.75],[0.75,1],[0.25,1],[0,0.75],[0,0.25]];polyline=0;" vertex="1" parent="1">
          <mxGeometry x="400" y="80" width="100" height="100" as="geometry" />
        </mxCell>
        <mxCell id="TO1YHMDLFjacRHkBEr9m-1" value="" style="ellipse;whiteSpace=wrap;html=1;fillColor=#f5f5f5;fontColor=#333333;strokeColor=#666666;" vertex="1" parent="1">
          <mxGeometry x="60" y="30" width="270" height="200" as="geometry" />
        </mxCell>
        <mxCell id="TO1YHMDLFjacRHkBEr9m-2" value="" style="shape=table;html=1;whiteSpace=wrap;startSize=0;container=1;collapsible=0;childLayout=tableLayout;fillColor=#1ba1e2;fontColor=#ffffff;strokeColor=#006EAF;" vertex="1" parent="1">
          <mxGeometry x="520" y="140" width="150" height="20" as="geometry" />
        </mxCell>
        <mxCell id="TO1YHMDLFjacRHkBEr9m-3" value="" style="shape=tableRow;horizontal=0;startSize=0;swimlaneHead=0;swimlaneBody=0;top=0;left=0;bottom=0;right=0;collapsible=0;dropTarget=0;fillColor=none;points=[[0,0.5],[1,0.5]];portConstraint=eastwest;" vertex="1" parent="TO1YHMDLFjacRHkBEr9m-2">
          <mxGeometry width="150" height="20" as="geometry" />
        </mxCell>
        <mxCell id="TO1YHMDLFjacRHkBEr9m-4" value="" style="shape=partialRectangle;html=1;whiteSpace=wrap;connectable=0;fillColor=#dae8fc;top=0;left=0;bottom=0;right=0;overflow=hidden;strokeColor=#6c8ebf;" vertex="1" parent="TO1YHMDLFjacRHkBEr9m-3">
          <mxGeometry width="50" height="20" as="geometry">
            <mxRectangle width="50" height="20" as="alternateBounds" />
          </mxGeometry>
        </mxCell>
        <mxCell id="TO1YHMDLFjacRHkBEr9m-5" value="" style="shape=partialRectangle;html=1;whiteSpace=wrap;connectable=0;fillColor=#d5e8d4;top=0;left=0;bottom=0;right=0;overflow=hidden;strokeColor=#82b366;" vertex="1" parent="TO1YHMDLFjacRHkBEr9m-3">
          <mxGeometry x="50" width="50" height="20" as="geometry">
            <mxRectangle width="50" height="20" as="alternateBounds" />
          </mxGeometry>
        </mxCell>
        <mxCell id="TO1YHMDLFjacRHkBEr9m-6" value="" style="shape=partialRectangle;html=1;whiteSpace=wrap;connectable=0;fillColor=#f0a30a;top=0;left=0;bottom=0;right=0;overflow=hidden;fontColor=#000000;strokeColor=#BD7000;" vertex="1" parent="TO1YHMDLFjacRHkBEr9m-3">
          <mxGeometry x="100" width="50" height="20" as="geometry">
            <mxRectangle width="50" height="20" as="alternateBounds" />
          </mxGeometry>
        </mxCell>
        <mxCell id="TO1YHMDLFjacRHkBEr9m-16" value="" style="shape=table;html=1;whiteSpace=wrap;startSize=0;container=1;collapsible=0;childLayout=tableLayout;fillColor=#1ba1e2;fontColor=#ffffff;strokeColor=#006EAF;" vertex="1" parent="1">
          <mxGeometry x="520" y="190" width="150" height="20" as="geometry" />
        </mxCell>
        <mxCell id="TO1YHMDLFjacRHkBEr9m-17" value="" style="shape=tableRow;horizontal=0;startSize=0;swimlaneHead=0;swimlaneBody=0;top=0;left=0;bottom=0;right=0;collapsible=0;dropTarget=0;fillColor=none;points=[[0,0.5],[1,0.5]];portConstraint=eastwest;" vertex="1" parent="TO1YHMDLFjacRHkBEr9m-16">
          <mxGeometry width="150" height="20" as="geometry" />
        </mxCell>
        <mxCell id="TO1YHMDLFjacRHkBEr9m-18" value="" style="shape=partialRectangle;html=1;whiteSpace=wrap;connectable=0;fillColor=#dae8fc;top=0;left=0;bottom=0;right=0;overflow=hidden;strokeColor=#6c8ebf;" vertex="1" parent="TO1YHMDLFjacRHkBEr9m-17">
          <mxGeometry width="50" height="20" as="geometry">
            <mxRectangle width="50" height="20" as="alternateBounds" />
          </mxGeometry>
        </mxCell>
        <mxCell id="TO1YHMDLFjacRHkBEr9m-19" value="" style="shape=partialRectangle;html=1;whiteSpace=wrap;connectable=0;fillColor=#d5e8d4;top=0;left=0;bottom=0;right=0;overflow=hidden;strokeColor=#82b366;" vertex="1" parent="TO1YHMDLFjacRHkBEr9m-17">
          <mxGeometry x="50" width="50" height="20" as="geometry">
            <mxRectangle width="50" height="20" as="alternateBounds" />
          </mxGeometry>
        </mxCell>
        <mxCell id="TO1YHMDLFjacRHkBEr9m-20" value="" style="shape=partialRectangle;html=1;whiteSpace=wrap;connectable=0;top=0;left=0;bottom=0;right=0;overflow=hidden;" vertex="1" parent="TO1YHMDLFjacRHkBEr9m-17">
          <mxGeometry x="100" width="50" height="20" as="geometry">
            <mxRectangle width="50" height="20" as="alternateBounds" />
          </mxGeometry>
        </mxCell>
        <mxCell id="TO1YHMDLFjacRHkBEr9m-21" value="含bug标签实例" style="text;html=1;strokeColor=none;fillColor=none;align=center;verticalAlign=middle;whiteSpace=wrap;rounded=0;" vertex="1" parent="1">
          <mxGeometry x="680" y="135" width="100" height="30" as="geometry" />
        </mxCell>
        <mxCell id="TO1YHMDLFjacRHkBEr9m-22" value="不含bug标签实例" style="text;html=1;strokeColor=none;fillColor=none;align=center;verticalAlign=middle;whiteSpace=wrap;rounded=0;" vertex="1" parent="1">
          <mxGeometry x="690" y="185" width="100" height="30" as="geometry" />
        </mxCell>
        <mxCell id="TO1YHMDLFjacRHkBEr9m-23" value="" style="rounded=0;whiteSpace=wrap;html=1;fillColor=#dae8fc;strokeColor=#6c8ebf;" vertex="1" parent="1">
          <mxGeometry x="520" y="90" width="50" height="20" as="geometry" />
        </mxCell>
        <mxCell id="TO1YHMDLFjacRHkBEr9m-24" value="bug报告" style="text;html=1;strokeColor=none;fillColor=none;align=center;verticalAlign=middle;whiteSpace=wrap;rounded=0;" vertex="1" parent="1">
          <mxGeometry x="570" y="85" width="100" height="30" as="geometry" />
        </mxCell>
        <mxCell id="TO1YHMDLFjacRHkBEr9m-27" value="" style="rounded=0;whiteSpace=wrap;html=1;fillColor=#d5e8d4;strokeColor=#82b366;" vertex="1" parent="1">
          <mxGeometry x="520" y="55" width="50" height="20" as="geometry" />
        </mxCell>
        <mxCell id="TO1YHMDLFjacRHkBEr9m-28" value="源文件" style="text;html=1;strokeColor=none;fillColor=none;align=center;verticalAlign=middle;whiteSpace=wrap;rounded=0;" vertex="1" parent="1">
          <mxGeometry x="570" y="50" width="100" height="30" as="geometry" />
        </mxCell>
        <mxCell id="TO1YHMDLFjacRHkBEr9m-49" value="" style="shape=table;html=1;whiteSpace=wrap;startSize=0;container=1;collapsible=0;childLayout=tableLayout;fillColor=#1ba1e2;fontColor=#ffffff;strokeColor=#006EAF;" vertex="1" parent="1">
          <mxGeometry x="190" y="100" width="60" height="20" as="geometry" />
        </mxCell>
        <mxCell id="TO1YHMDLFjacRHkBEr9m-50" value="" style="shape=tableRow;horizontal=0;startSize=0;swimlaneHead=0;swimlaneBody=0;top=0;left=0;bottom=0;right=0;collapsible=0;dropTarget=0;fillColor=none;points=[[0,0.5],[1,0.5]];portConstraint=eastwest;" vertex="1" parent="TO1YHMDLFjacRHkBEr9m-49">
          <mxGeometry width="60" height="20" as="geometry" />
        </mxCell>
        <mxCell id="TO1YHMDLFjacRHkBEr9m-51" value="" style="shape=partialRectangle;html=1;whiteSpace=wrap;connectable=0;fillColor=#dae8fc;top=0;left=0;bottom=0;right=0;overflow=hidden;strokeColor=#6c8ebf;" vertex="1" parent="TO1YHMDLFjacRHkBEr9m-50">
          <mxGeometry width="20" height="20" as="geometry">
            <mxRectangle width="20" height="20" as="alternateBounds" />
          </mxGeometry>
        </mxCell>
        <mxCell id="TO1YHMDLFjacRHkBEr9m-52" value="" style="shape=partialRectangle;html=1;whiteSpace=wrap;connectable=0;fillColor=#d5e8d4;top=0;left=0;bottom=0;right=0;overflow=hidden;strokeColor=#82b366;" vertex="1" parent="TO1YHMDLFjacRHkBEr9m-50">
          <mxGeometry x="20" width="20" height="20" as="geometry">
            <mxRectangle width="20" height="20" as="alternateBounds" />
          </mxGeometry>
        </mxCell>
        <mxCell id="TO1YHMDLFjacRHkBEr9m-53" value="" style="shape=partialRectangle;html=1;whiteSpace=wrap;connectable=0;fillColor=#f0a30a;top=0;left=0;bottom=0;right=0;overflow=hidden;fontColor=#000000;strokeColor=#BD7000;" vertex="1" parent="TO1YHMDLFjacRHkBEr9m-50">
          <mxGeometry x="40" width="20" height="20" as="geometry">
            <mxRectangle width="20" height="20" as="alternateBounds" />
          </mxGeometry>
        </mxCell>
        <mxCell id="TO1YHMDLFjacRHkBEr9m-54" value="" style="shape=table;html=1;whiteSpace=wrap;startSize=0;container=1;collapsible=0;childLayout=tableLayout;fillColor=#1ba1e2;fontColor=#ffffff;strokeColor=#006EAF;" vertex="1" parent="1">
          <mxGeometry x="100" y="120" width="60" height="20" as="geometry" />
        </mxCell>
        <mxCell id="TO1YHMDLFjacRHkBEr9m-55" value="" style="shape=tableRow;horizontal=0;startSize=0;swimlaneHead=0;swimlaneBody=0;top=0;left=0;bottom=0;right=0;collapsible=0;dropTarget=0;fillColor=none;points=[[0,0.5],[1,0.5]];portConstraint=eastwest;" vertex="1" parent="TO1YHMDLFjacRHkBEr9m-54">
          <mxGeometry width="60" height="20" as="geometry" />
        </mxCell>
        <mxCell id="TO1YHMDLFjacRHkBEr9m-56" value="" style="shape=partialRectangle;html=1;whiteSpace=wrap;connectable=0;fillColor=#dae8fc;top=0;left=0;bottom=0;right=0;overflow=hidden;strokeColor=#6c8ebf;" vertex="1" parent="TO1YHMDLFjacRHkBEr9m-55">
          <mxGeometry width="20" height="20" as="geometry">
            <mxRectangle width="20" height="20" as="alternateBounds" />
          </mxGeometry>
        </mxCell>
        <mxCell id="TO1YHMDLFjacRHkBEr9m-57" value="" style="shape=partialRectangle;html=1;whiteSpace=wrap;connectable=0;fillColor=#d5e8d4;top=0;left=0;bottom=0;right=0;overflow=hidden;strokeColor=#82b366;" vertex="1" parent="TO1YHMDLFjacRHkBEr9m-55">
          <mxGeometry x="20" width="20" height="20" as="geometry">
            <mxRectangle width="20" height="20" as="alternateBounds" />
          </mxGeometry>
        </mxCell>
        <mxCell id="TO1YHMDLFjacRHkBEr9m-58" value="" style="shape=partialRectangle;html=1;whiteSpace=wrap;connectable=0;top=0;left=0;bottom=0;right=0;overflow=hidden;" vertex="1" parent="TO1YHMDLFjacRHkBEr9m-55">
          <mxGeometry x="40" width="20" height="20" as="geometry">
            <mxRectangle width="20" height="20" as="alternateBounds" />
          </mxGeometry>
        </mxCell>
        <mxCell id="TO1YHMDLFjacRHkBEr9m-59" value="" style="shape=table;html=1;whiteSpace=wrap;startSize=0;container=1;collapsible=0;childLayout=tableLayout;fillColor=#1ba1e2;fontColor=#ffffff;strokeColor=#006EAF;" vertex="1" parent="1">
          <mxGeometry x="110" y="80" width="60" height="20" as="geometry" />
        </mxCell>
        <mxCell id="TO1YHMDLFjacRHkBEr9m-60" value="" style="shape=tableRow;horizontal=0;startSize=0;swimlaneHead=0;swimlaneBody=0;top=0;left=0;bottom=0;right=0;collapsible=0;dropTarget=0;fillColor=none;points=[[0,0.5],[1,0.5]];portConstraint=eastwest;" vertex="1" parent="TO1YHMDLFjacRHkBEr9m-59">
          <mxGeometry width="60" height="20" as="geometry" />
        </mxCell>
        <mxCell id="TO1YHMDLFjacRHkBEr9m-61" value="" style="shape=partialRectangle;html=1;whiteSpace=wrap;connectable=0;fillColor=#dae8fc;top=0;left=0;bottom=0;right=0;overflow=hidden;strokeColor=#6c8ebf;" vertex="1" parent="TO1YHMDLFjacRHkBEr9m-60">
          <mxGeometry width="20" height="20" as="geometry">
            <mxRectangle width="20" height="20" as="alternateBounds" />
          </mxGeometry>
        </mxCell>
        <mxCell id="TO1YHMDLFjacRHkBEr9m-62" value="" style="shape=partialRectangle;html=1;whiteSpace=wrap;connectable=0;fillColor=#d5e8d4;top=0;left=0;bottom=0;right=0;overflow=hidden;strokeColor=#82b366;" vertex="1" parent="TO1YHMDLFjacRHkBEr9m-60">
          <mxGeometry x="20" width="20" height="20" as="geometry">
            <mxRectangle width="20" height="20" as="alternateBounds" />
          </mxGeometry>
        </mxCell>
        <mxCell id="TO1YHMDLFjacRHkBEr9m-63" value="" style="shape=partialRectangle;html=1;whiteSpace=wrap;connectable=0;fillColor=#f0a30a;top=0;left=0;bottom=0;right=0;overflow=hidden;fontColor=#000000;strokeColor=#BD7000;" vertex="1" parent="TO1YHMDLFjacRHkBEr9m-60">
          <mxGeometry x="40" width="20" height="20" as="geometry">
            <mxRectangle width="20" height="20" as="alternateBounds" />
          </mxGeometry>
        </mxCell>
        <mxCell id="TO1YHMDLFjacRHkBEr9m-64" value="" style="shape=table;html=1;whiteSpace=wrap;startSize=0;container=1;collapsible=0;childLayout=tableLayout;fillColor=#1ba1e2;fontColor=#ffffff;strokeColor=#006EAF;" vertex="1" parent="1">
          <mxGeometry x="190" y="60" width="60" height="20" as="geometry" />
        </mxCell>
        <mxCell id="TO1YHMDLFjacRHkBEr9m-65" value="" style="shape=tableRow;horizontal=0;startSize=0;swimlaneHead=0;swimlaneBody=0;top=0;left=0;bottom=0;right=0;collapsible=0;dropTarget=0;fillColor=none;points=[[0,0.5],[1,0.5]];portConstraint=eastwest;" vertex="1" parent="TO1YHMDLFjacRHkBEr9m-64">
          <mxGeometry width="60" height="20" as="geometry" />
        </mxCell>
        <mxCell id="TO1YHMDLFjacRHkBEr9m-66" value="" style="shape=partialRectangle;html=1;whiteSpace=wrap;connectable=0;fillColor=#dae8fc;top=0;left=0;bottom=0;right=0;overflow=hidden;strokeColor=#6c8ebf;" vertex="1" parent="TO1YHMDLFjacRHkBEr9m-65">
          <mxGeometry width="20" height="20" as="geometry">
            <mxRectangle width="20" height="20" as="alternateBounds" />
          </mxGeometry>
        </mxCell>
        <mxCell id="TO1YHMDLFjacRHkBEr9m-67" value="" style="shape=partialRectangle;html=1;whiteSpace=wrap;connectable=0;fillColor=#d5e8d4;top=0;left=0;bottom=0;right=0;overflow=hidden;strokeColor=#82b366;" vertex="1" parent="TO1YHMDLFjacRHkBEr9m-65">
          <mxGeometry x="20" width="20" height="20" as="geometry">
            <mxRectangle width="20" height="20" as="alternateBounds" />
          </mxGeometry>
        </mxCell>
        <mxCell id="TO1YHMDLFjacRHkBEr9m-68" value="" style="shape=partialRectangle;html=1;whiteSpace=wrap;connectable=0;top=0;left=0;bottom=0;right=0;overflow=hidden;" vertex="1" parent="TO1YHMDLFjacRHkBEr9m-65">
          <mxGeometry x="40" width="20" height="20" as="geometry">
            <mxRectangle width="20" height="20" as="alternateBounds" />
          </mxGeometry>
        </mxCell>
        <mxCell id="TO1YHMDLFjacRHkBEr9m-69" value="" style="endArrow=none;html=1;rounded=0;entryX=0.963;entryY=0.325;entryDx=0;entryDy=0;entryPerimeter=0;exitX=0;exitY=1;exitDx=0;exitDy=0;" edge="1" parent="1" source="TO1YHMDLFjacRHkBEr9m-1" target="TO1YHMDLFjacRHkBEr9m-1">
          <mxGeometry width="50" height="50" relative="1" as="geometry">
            <mxPoint x="220" y="350" as="sourcePoint" />
            <mxPoint x="270" y="300" as="targetPoint" />
          </mxGeometry>
        </mxCell>
        <mxCell id="TO1YHMDLFjacRHkBEr9m-70" value="" style="shape=table;html=1;whiteSpace=wrap;startSize=0;container=1;collapsible=0;childLayout=tableLayout;fillColor=#1ba1e2;fontColor=#ffffff;strokeColor=#006EAF;" vertex="1" parent="1">
          <mxGeometry x="160" y="200" width="60" height="20" as="geometry" />
        </mxCell>
        <mxCell id="TO1YHMDLFjacRHkBEr9m-71" value="" style="shape=tableRow;horizontal=0;startSize=0;swimlaneHead=0;swimlaneBody=0;top=0;left=0;bottom=0;right=0;collapsible=0;dropTarget=0;fillColor=none;points=[[0,0.5],[1,0.5]];portConstraint=eastwest;" vertex="1" parent="TO1YHMDLFjacRHkBEr9m-70">
          <mxGeometry width="60" height="20" as="geometry" />
        </mxCell>
        <mxCell id="TO1YHMDLFjacRHkBEr9m-72" value="" style="shape=partialRectangle;html=1;whiteSpace=wrap;connectable=0;fillColor=#dae8fc;top=0;left=0;bottom=0;right=0;overflow=hidden;strokeColor=#6c8ebf;" vertex="1" parent="TO1YHMDLFjacRHkBEr9m-71">
          <mxGeometry width="20" height="20" as="geometry">
            <mxRectangle width="20" height="20" as="alternateBounds" />
          </mxGeometry>
        </mxCell>
        <mxCell id="TO1YHMDLFjacRHkBEr9m-73" value="" style="shape=partialRectangle;html=1;whiteSpace=wrap;connectable=0;fillColor=#d5e8d4;top=0;left=0;bottom=0;right=0;overflow=hidden;strokeColor=#82b366;" vertex="1" parent="TO1YHMDLFjacRHkBEr9m-71">
          <mxGeometry x="20" width="20" height="20" as="geometry">
            <mxRectangle width="20" height="20" as="alternateBounds" />
          </mxGeometry>
        </mxCell>
        <mxCell id="TO1YHMDLFjacRHkBEr9m-74" value="？" style="shape=partialRectangle;html=1;whiteSpace=wrap;connectable=0;top=0;left=0;bottom=0;right=0;overflow=hidden;" vertex="1" parent="TO1YHMDLFjacRHkBEr9m-71">
          <mxGeometry x="40" width="20" height="20" as="geometry">
            <mxRectangle width="20" height="20" as="alternateBounds" />
          </mxGeometry>
        </mxCell>
        <mxCell id="TO1YHMDLFjacRHkBEr9m-75" value="" style="shape=table;html=1;whiteSpace=wrap;startSize=0;container=1;collapsible=0;childLayout=tableLayout;fillColor=#1ba1e2;fontColor=#ffffff;strokeColor=#006EAF;" vertex="1" parent="1">
          <mxGeometry x="230" y="160" width="60" height="20" as="geometry" />
        </mxCell>
        <mxCell id="TO1YHMDLFjacRHkBEr9m-76" value="" style="shape=tableRow;horizontal=0;startSize=0;swimlaneHead=0;swimlaneBody=0;top=0;left=0;bottom=0;right=0;collapsible=0;dropTarget=0;fillColor=none;points=[[0,0.5],[1,0.5]];portConstraint=eastwest;" vertex="1" parent="TO1YHMDLFjacRHkBEr9m-75">
          <mxGeometry width="60" height="20" as="geometry" />
        </mxCell>
        <mxCell id="TO1YHMDLFjacRHkBEr9m-77" value="" style="shape=partialRectangle;html=1;whiteSpace=wrap;connectable=0;fillColor=#dae8fc;top=0;left=0;bottom=0;right=0;overflow=hidden;strokeColor=#6c8ebf;" vertex="1" parent="TO1YHMDLFjacRHkBEr9m-76">
          <mxGeometry width="20" height="20" as="geometry">
            <mxRectangle width="20" height="20" as="alternateBounds" />
          </mxGeometry>
        </mxCell>
        <mxCell id="TO1YHMDLFjacRHkBEr9m-78" value="" style="shape=partialRectangle;html=1;whiteSpace=wrap;connectable=0;fillColor=#d5e8d4;top=0;left=0;bottom=0;right=0;overflow=hidden;strokeColor=#82b366;" vertex="1" parent="TO1YHMDLFjacRHkBEr9m-76">
          <mxGeometry x="20" width="20" height="20" as="geometry">
            <mxRectangle width="20" height="20" as="alternateBounds" />
          </mxGeometry>
        </mxCell>
        <mxCell id="TO1YHMDLFjacRHkBEr9m-79" value="？" style="shape=partialRectangle;html=1;whiteSpace=wrap;connectable=0;top=0;left=0;bottom=0;right=0;overflow=hidden;" vertex="1" parent="TO1YHMDLFjacRHkBEr9m-76">
          <mxGeometry x="40" width="20" height="20" as="geometry">
            <mxRectangle width="20" height="20" as="alternateBounds" />
          </mxGeometry>
        </mxCell>
        <mxCell id="TO1YHMDLFjacRHkBEr9m-86" value="" style="shape=table;html=1;whiteSpace=wrap;startSize=0;container=1;collapsible=0;childLayout=tableLayout;fillColor=#1ba1e2;fontColor=#ffffff;strokeColor=#006EAF;" vertex="1" parent="1">
          <mxGeometry x="520" y="245" width="150" height="20" as="geometry" />
        </mxCell>
        <mxCell id="TO1YHMDLFjacRHkBEr9m-87" value="" style="shape=tableRow;horizontal=0;startSize=0;swimlaneHead=0;swimlaneBody=0;top=0;left=0;bottom=0;right=0;collapsible=0;dropTarget=0;fillColor=none;points=[[0,0.5],[1,0.5]];portConstraint=eastwest;" vertex="1" parent="TO1YHMDLFjacRHkBEr9m-86">
          <mxGeometry width="150" height="20" as="geometry" />
        </mxCell>
        <mxCell id="TO1YHMDLFjacRHkBEr9m-88" value="" style="shape=partialRectangle;html=1;whiteSpace=wrap;connectable=0;fillColor=#dae8fc;top=0;left=0;bottom=0;right=0;overflow=hidden;strokeColor=#6c8ebf;" vertex="1" parent="TO1YHMDLFjacRHkBEr9m-87">
          <mxGeometry width="50" height="20" as="geometry">
            <mxRectangle width="50" height="20" as="alternateBounds" />
          </mxGeometry>
        </mxCell>
        <mxCell id="TO1YHMDLFjacRHkBEr9m-89" value="" style="shape=partialRectangle;html=1;whiteSpace=wrap;connectable=0;fillColor=#d5e8d4;top=0;left=0;bottom=0;right=0;overflow=hidden;strokeColor=#82b366;" vertex="1" parent="TO1YHMDLFjacRHkBEr9m-87">
          <mxGeometry x="50" width="50" height="20" as="geometry">
            <mxRectangle width="50" height="20" as="alternateBounds" />
          </mxGeometry>
        </mxCell>
        <mxCell id="TO1YHMDLFjacRHkBEr9m-90" value="？" style="shape=partialRectangle;html=1;whiteSpace=wrap;connectable=0;top=0;left=0;bottom=0;right=0;overflow=hidden;" vertex="1" parent="TO1YHMDLFjacRHkBEr9m-87">
          <mxGeometry x="100" width="50" height="20" as="geometry">
            <mxRectangle width="50" height="20" as="alternateBounds" />
          </mxGeometry>
        </mxCell>
        <mxCell id="TO1YHMDLFjacRHkBEr9m-91" value="待预测实例" style="text;html=1;strokeColor=none;fillColor=none;align=center;verticalAlign=middle;whiteSpace=wrap;rounded=0;" vertex="1" parent="1">
          <mxGeometry x="680" y="240" width="100" height="30" as="geometry" />
        </mxCell>
        <mxCell id="TO1YHMDLFjacRHkBEr9m-92" value="" style="verticalLabelPosition=bottom;verticalAlign=top;html=1;shape=mxgraph.basic.smiley;fillColor=#f8cecc;strokeColor=#b85450;" vertex="1" parent="1">
          <mxGeometry x="410" y="90" width="80" height="80" as="geometry" />
        </mxCell>
        <mxCell id="TO1YHMDLFjacRHkBEr9m-94" value="&lt;font style=&quot;font-size: 17px&quot;&gt;Model&lt;/font&gt;" style="text;html=1;strokeColor=none;fillColor=none;align=center;verticalAlign=middle;whiteSpace=wrap;rounded=0;" vertex="1" parent="1">
          <mxGeometry x="420" y="200" width="60" height="30" as="geometry" />
        </mxCell>
        <mxCell id="TO1YHMDLFjacRHkBEr9m-96" value="" style="curved=1;endArrow=classic;html=1;rounded=0;fontSize=17;exitX=0.659;exitY=0.015;exitDx=0;exitDy=0;exitPerimeter=0;" edge="1" parent="1" source="TO1YHMDLFjacRHkBEr9m-1">
          <mxGeometry width="50" height="50" relative="1" as="geometry">
            <mxPoint x="240" y="40" as="sourcePoint" />
            <mxPoint x="440" y="80" as="targetPoint" />
            <Array as="points">
              <mxPoint x="290" y="10" />
              <mxPoint x="390" y="20" />
            </Array>
          </mxGeometry>
        </mxCell>
        <mxCell id="TO1YHMDLFjacRHkBEr9m-97" value="" style="curved=1;endArrow=classic;html=1;rounded=0;fontSize=17;entryX=0.667;entryY=1;entryDx=0;entryDy=0;entryPerimeter=0;" edge="1" parent="1" target="TO1YHMDLFjacRHkBEr9m-1">
          <mxGeometry width="50" height="50" relative="1" as="geometry">
            <mxPoint x="440" y="230" as="sourcePoint" />
            <mxPoint x="290" y="290" as="targetPoint" />
            <Array as="points">
              <mxPoint x="440" y="230" />
              <mxPoint x="410" y="260" />
              <mxPoint x="360" y="280" />
              <mxPoint x="300" y="280" />
            </Array>
          </mxGeometry>
        </mxCell>
        <mxCell id="TO1YHMDLFjacRHkBEr9m-98" value="训练" style="text;html=1;strokeColor=none;fillColor=none;align=center;verticalAlign=middle;whiteSpace=wrap;rounded=0;fontSize=17;" vertex="1" parent="1">
          <mxGeometry x="310" y="-20" width="60" height="30" as="geometry" />
        </mxCell>
        <mxCell id="TO1YHMDLFjacRHkBEr9m-99" value="预测" style="text;html=1;strokeColor=none;fillColor=none;align=center;verticalAlign=middle;whiteSpace=wrap;rounded=0;fontSize=17;" vertex="1" parent="1">
          <mxGeometry x="330" y="280" width="60" height="30" as="geometry" />
        </mxCell>
        <mxCell id="TO1YHMDLFjacRHkBEr9m-100" value="" style="verticalLabelPosition=bottom;verticalAlign=top;html=1;shape=mxgraph.basic.polygon;polyCoords=[[0.25,0],[0.75,0],[1,0.25],[1,0.75],[0.75,1],[0.25,1],[0,0.75],[0,0.25]];polyline=0;" vertex="1" parent="1">
          <mxGeometry x="420" y="460" width="100" height="100" as="geometry" />
        </mxCell>
        <mxCell id="TO1YHMDLFjacRHkBEr9m-101" value="" style="ellipse;whiteSpace=wrap;html=1;fillColor=#f5f5f5;fontColor=#333333;strokeColor=#666666;" vertex="1" parent="1">
          <mxGeometry x="80" y="410" width="270" height="200" as="geometry" />
        </mxCell>
        <mxCell id="TO1YHMDLFjacRHkBEr9m-102" value="" style="shape=table;html=1;whiteSpace=wrap;startSize=0;container=1;collapsible=0;childLayout=tableLayout;fillColor=#1ba1e2;fontColor=#ffffff;strokeColor=#006EAF;" vertex="1" parent="1">
          <mxGeometry x="225" y="500" width="60" height="20" as="geometry" />
        </mxCell>
        <mxCell id="TO1YHMDLFjacRHkBEr9m-103" value="" style="shape=tableRow;horizontal=0;startSize=0;swimlaneHead=0;swimlaneBody=0;top=0;left=0;bottom=0;right=0;collapsible=0;dropTarget=0;fillColor=none;points=[[0,0.5],[1,0.5]];portConstraint=eastwest;" vertex="1" parent="TO1YHMDLFjacRHkBEr9m-102">
          <mxGeometry width="60" height="20" as="geometry" />
        </mxCell>
        <mxCell id="TO1YHMDLFjacRHkBEr9m-104" value="" style="shape=partialRectangle;html=1;whiteSpace=wrap;connectable=0;fillColor=#dae8fc;top=0;left=0;bottom=0;right=0;overflow=hidden;strokeColor=#6c8ebf;" vertex="1" parent="TO1YHMDLFjacRHkBEr9m-103">
          <mxGeometry width="20" height="20" as="geometry">
            <mxRectangle width="20" height="20" as="alternateBounds" />
          </mxGeometry>
        </mxCell>
        <mxCell id="TO1YHMDLFjacRHkBEr9m-105" value="" style="shape=partialRectangle;html=1;whiteSpace=wrap;connectable=0;fillColor=#d5e8d4;top=0;left=0;bottom=0;right=0;overflow=hidden;strokeColor=#82b366;" vertex="1" parent="TO1YHMDLFjacRHkBEr9m-103">
          <mxGeometry x="20" width="20" height="20" as="geometry">
            <mxRectangle width="20" height="20" as="alternateBounds" />
          </mxGeometry>
        </mxCell>
        <mxCell id="TO1YHMDLFjacRHkBEr9m-106" value="" style="shape=partialRectangle;html=1;whiteSpace=wrap;connectable=0;fillColor=#f0a30a;top=0;left=0;bottom=0;right=0;overflow=hidden;fontColor=#000000;strokeColor=#BD7000;" vertex="1" parent="TO1YHMDLFjacRHkBEr9m-103">
          <mxGeometry x="40" width="20" height="20" as="geometry">
            <mxRectangle width="20" height="20" as="alternateBounds" />
          </mxGeometry>
        </mxCell>
        <mxCell id="TO1YHMDLFjacRHkBEr9m-107" value="" style="shape=table;html=1;whiteSpace=wrap;startSize=0;container=1;collapsible=0;childLayout=tableLayout;fillColor=#1ba1e2;fontColor=#ffffff;strokeColor=#006EAF;" vertex="1" parent="1">
          <mxGeometry x="120" y="500" width="60" height="20" as="geometry" />
        </mxCell>
        <mxCell id="TO1YHMDLFjacRHkBEr9m-108" value="" style="shape=tableRow;horizontal=0;startSize=0;swimlaneHead=0;swimlaneBody=0;top=0;left=0;bottom=0;right=0;collapsible=0;dropTarget=0;fillColor=none;points=[[0,0.5],[1,0.5]];portConstraint=eastwest;" vertex="1" parent="TO1YHMDLFjacRHkBEr9m-107">
          <mxGeometry width="60" height="20" as="geometry" />
        </mxCell>
        <mxCell id="TO1YHMDLFjacRHkBEr9m-109" value="" style="shape=partialRectangle;html=1;whiteSpace=wrap;connectable=0;fillColor=#dae8fc;top=0;left=0;bottom=0;right=0;overflow=hidden;strokeColor=#6c8ebf;" vertex="1" parent="TO1YHMDLFjacRHkBEr9m-108">
          <mxGeometry width="20" height="20" as="geometry">
            <mxRectangle width="20" height="20" as="alternateBounds" />
          </mxGeometry>
        </mxCell>
        <mxCell id="TO1YHMDLFjacRHkBEr9m-110" value="" style="shape=partialRectangle;html=1;whiteSpace=wrap;connectable=0;fillColor=#d5e8d4;top=0;left=0;bottom=0;right=0;overflow=hidden;strokeColor=#82b366;" vertex="1" parent="TO1YHMDLFjacRHkBEr9m-108">
          <mxGeometry x="20" width="20" height="20" as="geometry">
            <mxRectangle width="20" height="20" as="alternateBounds" />
          </mxGeometry>
        </mxCell>
        <mxCell id="TO1YHMDLFjacRHkBEr9m-111" value="" style="shape=partialRectangle;html=1;whiteSpace=wrap;connectable=0;top=0;left=0;bottom=0;right=0;overflow=hidden;" vertex="1" parent="TO1YHMDLFjacRHkBEr9m-108">
          <mxGeometry x="40" width="20" height="20" as="geometry">
            <mxRectangle width="20" height="20" as="alternateBounds" />
          </mxGeometry>
        </mxCell>
        <mxCell id="TO1YHMDLFjacRHkBEr9m-112" value="" style="shape=table;html=1;whiteSpace=wrap;startSize=0;container=1;collapsible=0;childLayout=tableLayout;fillColor=#1ba1e2;fontColor=#ffffff;strokeColor=#006EAF;" vertex="1" parent="1">
          <mxGeometry x="130" y="460" width="60" height="20" as="geometry" />
        </mxCell>
        <mxCell id="TO1YHMDLFjacRHkBEr9m-113" value="" style="shape=tableRow;horizontal=0;startSize=0;swimlaneHead=0;swimlaneBody=0;top=0;left=0;bottom=0;right=0;collapsible=0;dropTarget=0;fillColor=none;points=[[0,0.5],[1,0.5]];portConstraint=eastwest;" vertex="1" parent="TO1YHMDLFjacRHkBEr9m-112">
          <mxGeometry width="60" height="20" as="geometry" />
        </mxCell>
        <mxCell id="TO1YHMDLFjacRHkBEr9m-114" value="" style="shape=partialRectangle;html=1;whiteSpace=wrap;connectable=0;fillColor=#dae8fc;top=0;left=0;bottom=0;right=0;overflow=hidden;strokeColor=#6c8ebf;" vertex="1" parent="TO1YHMDLFjacRHkBEr9m-113">
          <mxGeometry width="20" height="20" as="geometry">
            <mxRectangle width="20" height="20" as="alternateBounds" />
          </mxGeometry>
        </mxCell>
        <mxCell id="TO1YHMDLFjacRHkBEr9m-115" value="" style="shape=partialRectangle;html=1;whiteSpace=wrap;connectable=0;fillColor=#d5e8d4;top=0;left=0;bottom=0;right=0;overflow=hidden;strokeColor=#82b366;" vertex="1" parent="TO1YHMDLFjacRHkBEr9m-113">
          <mxGeometry x="20" width="20" height="20" as="geometry">
            <mxRectangle width="20" height="20" as="alternateBounds" />
          </mxGeometry>
        </mxCell>
        <mxCell id="TO1YHMDLFjacRHkBEr9m-116" value="" style="shape=partialRectangle;html=1;whiteSpace=wrap;connectable=0;fillColor=#f0a30a;top=0;left=0;bottom=0;right=0;overflow=hidden;fontColor=#000000;strokeColor=#BD7000;" vertex="1" parent="TO1YHMDLFjacRHkBEr9m-113">
          <mxGeometry x="40" width="20" height="20" as="geometry">
            <mxRectangle width="20" height="20" as="alternateBounds" />
          </mxGeometry>
        </mxCell>
        <mxCell id="TO1YHMDLFjacRHkBEr9m-117" value="" style="shape=table;html=1;whiteSpace=wrap;startSize=0;container=1;collapsible=0;childLayout=tableLayout;fillColor=#1ba1e2;fontColor=#ffffff;strokeColor=#006EAF;" vertex="1" parent="1">
          <mxGeometry x="210" y="440" width="60" height="20" as="geometry" />
        </mxCell>
        <mxCell id="TO1YHMDLFjacRHkBEr9m-118" value="" style="shape=tableRow;horizontal=0;startSize=0;swimlaneHead=0;swimlaneBody=0;top=0;left=0;bottom=0;right=0;collapsible=0;dropTarget=0;fillColor=none;points=[[0,0.5],[1,0.5]];portConstraint=eastwest;" vertex="1" parent="TO1YHMDLFjacRHkBEr9m-117">
          <mxGeometry width="60" height="20" as="geometry" />
        </mxCell>
        <mxCell id="TO1YHMDLFjacRHkBEr9m-119" value="" style="shape=partialRectangle;html=1;whiteSpace=wrap;connectable=0;fillColor=#dae8fc;top=0;left=0;bottom=0;right=0;overflow=hidden;strokeColor=#6c8ebf;" vertex="1" parent="TO1YHMDLFjacRHkBEr9m-118">
          <mxGeometry width="20" height="20" as="geometry">
            <mxRectangle width="20" height="20" as="alternateBounds" />
          </mxGeometry>
        </mxCell>
        <mxCell id="TO1YHMDLFjacRHkBEr9m-120" value="" style="shape=partialRectangle;html=1;whiteSpace=wrap;connectable=0;fillColor=#d5e8d4;top=0;left=0;bottom=0;right=0;overflow=hidden;strokeColor=#82b366;" vertex="1" parent="TO1YHMDLFjacRHkBEr9m-118">
          <mxGeometry x="20" width="20" height="20" as="geometry">
            <mxRectangle width="20" height="20" as="alternateBounds" />
          </mxGeometry>
        </mxCell>
        <mxCell id="TO1YHMDLFjacRHkBEr9m-121" value="" style="shape=partialRectangle;html=1;whiteSpace=wrap;connectable=0;top=0;left=0;bottom=0;right=0;overflow=hidden;" vertex="1" parent="TO1YHMDLFjacRHkBEr9m-118">
          <mxGeometry x="40" width="20" height="20" as="geometry">
            <mxRectangle width="20" height="20" as="alternateBounds" />
          </mxGeometry>
        </mxCell>
        <mxCell id="TO1YHMDLFjacRHkBEr9m-133" value="" style="verticalLabelPosition=bottom;verticalAlign=top;html=1;shape=mxgraph.basic.smiley;fillColor=#f8cecc;strokeColor=#b85450;" vertex="1" parent="1">
          <mxGeometry x="430" y="470" width="80" height="80" as="geometry" />
        </mxCell>
        <mxCell id="TO1YHMDLFjacRHkBEr9m-134" value="&lt;font style=&quot;font-size: 17px&quot;&gt;Model&lt;/font&gt;" style="text;html=1;strokeColor=none;fillColor=none;align=center;verticalAlign=middle;whiteSpace=wrap;rounded=0;" vertex="1" parent="1">
          <mxGeometry x="440" y="580" width="60" height="30" as="geometry" />
        </mxCell>
        <mxCell id="TO1YHMDLFjacRHkBEr9m-135" value="" style="curved=1;endArrow=classic;html=1;rounded=0;fontSize=17;exitX=0.659;exitY=0.015;exitDx=0;exitDy=0;exitPerimeter=0;" edge="1" parent="1" source="TO1YHMDLFjacRHkBEr9m-101">
          <mxGeometry width="50" height="50" relative="1" as="geometry">
            <mxPoint x="260" y="420" as="sourcePoint" />
            <mxPoint x="460" y="460" as="targetPoint" />
            <Array as="points">
              <mxPoint x="310" y="390" />
              <mxPoint x="410" y="400" />
            </Array>
          </mxGeometry>
        </mxCell>
        <mxCell id="TO1YHMDLFjacRHkBEr9m-136" value="" style="curved=1;endArrow=classic;html=1;rounded=0;fontSize=17;entryX=0.5;entryY=1;entryDx=0;entryDy=0;" edge="1" parent="1" target="TO1YHMDLFjacRHkBEr9m-179">
          <mxGeometry width="50" height="50" relative="1" as="geometry">
            <mxPoint x="460" y="610" as="sourcePoint" />
            <mxPoint x="310" y="670" as="targetPoint" />
            <Array as="points">
              <mxPoint x="460" y="610" />
              <mxPoint x="480" y="640" />
              <mxPoint x="570" y="650" />
            </Array>
          </mxGeometry>
        </mxCell>
        <mxCell id="TO1YHMDLFjacRHkBEr9m-137" value="训练" style="text;html=1;strokeColor=none;fillColor=none;align=center;verticalAlign=middle;whiteSpace=wrap;rounded=0;fontSize=17;" vertex="1" parent="1">
          <mxGeometry x="330" y="360" width="60" height="30" as="geometry" />
        </mxCell>
        <mxCell id="TO1YHMDLFjacRHkBEr9m-138" value="预测" style="text;html=1;strokeColor=none;fillColor=none;align=center;verticalAlign=middle;whiteSpace=wrap;rounded=0;fontSize=17;" vertex="1" parent="1">
          <mxGeometry x="530" y="660" width="60" height="30" as="geometry" />
        </mxCell>
        <mxCell id="TO1YHMDLFjacRHkBEr9m-179" value="" style="ellipse;whiteSpace=wrap;html=1;fillColor=#f5f5f5;fontColor=#333333;strokeColor=#666666;" vertex="1" parent="1">
          <mxGeometry x="550" y="420" width="270" height="200" as="geometry" />
        </mxCell>
        <mxCell id="TO1YHMDLFjacRHkBEr9m-190" value="" style="shape=table;html=1;whiteSpace=wrap;startSize=0;container=1;collapsible=0;childLayout=tableLayout;fillColor=#1ba1e2;fontColor=#ffffff;strokeColor=#006EAF;" vertex="1" parent="1">
          <mxGeometry x="570" y="480" width="60" height="20" as="geometry" />
        </mxCell>
        <mxCell id="TO1YHMDLFjacRHkBEr9m-191" value="" style="shape=tableRow;horizontal=0;startSize=0;swimlaneHead=0;swimlaneBody=0;top=0;left=0;bottom=0;right=0;collapsible=0;dropTarget=0;fillColor=none;points=[[0,0.5],[1,0.5]];portConstraint=eastwest;" vertex="1" parent="TO1YHMDLFjacRHkBEr9m-190">
          <mxGeometry width="60" height="20" as="geometry" />
        </mxCell>
        <mxCell id="TO1YHMDLFjacRHkBEr9m-192" value="" style="shape=partialRectangle;html=1;whiteSpace=wrap;connectable=0;fillColor=#dae8fc;top=0;left=0;bottom=0;right=0;overflow=hidden;strokeColor=#6c8ebf;" vertex="1" parent="TO1YHMDLFjacRHkBEr9m-191">
          <mxGeometry width="20" height="20" as="geometry">
            <mxRectangle width="20" height="20" as="alternateBounds" />
          </mxGeometry>
        </mxCell>
        <mxCell id="TO1YHMDLFjacRHkBEr9m-193" value="" style="shape=partialRectangle;html=1;whiteSpace=wrap;connectable=0;fillColor=#d5e8d4;top=0;left=0;bottom=0;right=0;overflow=hidden;strokeColor=#82b366;" vertex="1" parent="TO1YHMDLFjacRHkBEr9m-191">
          <mxGeometry x="20" width="20" height="20" as="geometry">
            <mxRectangle width="20" height="20" as="alternateBounds" />
          </mxGeometry>
        </mxCell>
        <mxCell id="TO1YHMDLFjacRHkBEr9m-194" value="" style="shape=partialRectangle;html=1;whiteSpace=wrap;connectable=0;fillColor=#f0a30a;top=0;left=0;bottom=0;right=0;overflow=hidden;fontColor=#000000;strokeColor=#BD7000;" vertex="1" parent="TO1YHMDLFjacRHkBEr9m-191">
          <mxGeometry x="40" width="20" height="20" as="geometry">
            <mxRectangle width="20" height="20" as="alternateBounds" />
          </mxGeometry>
        </mxCell>
        <mxCell id="TO1YHMDLFjacRHkBEr9m-195" value="" style="shape=table;html=1;whiteSpace=wrap;startSize=0;container=1;collapsible=0;childLayout=tableLayout;fillColor=#1ba1e2;fontColor=#ffffff;strokeColor=#006EAF;" vertex="1" parent="1">
          <mxGeometry x="640" y="440" width="60" height="20" as="geometry" />
        </mxCell>
        <mxCell id="TO1YHMDLFjacRHkBEr9m-196" value="" style="shape=tableRow;horizontal=0;startSize=0;swimlaneHead=0;swimlaneBody=0;top=0;left=0;bottom=0;right=0;collapsible=0;dropTarget=0;fillColor=none;points=[[0,0.5],[1,0.5]];portConstraint=eastwest;" vertex="1" parent="TO1YHMDLFjacRHkBEr9m-195">
          <mxGeometry width="60" height="20" as="geometry" />
        </mxCell>
        <mxCell id="TO1YHMDLFjacRHkBEr9m-197" value="" style="shape=partialRectangle;html=1;whiteSpace=wrap;connectable=0;fillColor=#dae8fc;top=0;left=0;bottom=0;right=0;overflow=hidden;strokeColor=#6c8ebf;" vertex="1" parent="TO1YHMDLFjacRHkBEr9m-196">
          <mxGeometry width="20" height="20" as="geometry">
            <mxRectangle width="20" height="20" as="alternateBounds" />
          </mxGeometry>
        </mxCell>
        <mxCell id="TO1YHMDLFjacRHkBEr9m-198" value="" style="shape=partialRectangle;html=1;whiteSpace=wrap;connectable=0;fillColor=#d5e8d4;top=0;left=0;bottom=0;right=0;overflow=hidden;strokeColor=#82b366;" vertex="1" parent="TO1YHMDLFjacRHkBEr9m-196">
          <mxGeometry x="20" width="20" height="20" as="geometry">
            <mxRectangle width="20" height="20" as="alternateBounds" />
          </mxGeometry>
        </mxCell>
        <mxCell id="TO1YHMDLFjacRHkBEr9m-199" value="" style="shape=partialRectangle;html=1;whiteSpace=wrap;connectable=0;top=0;left=0;bottom=0;right=0;overflow=hidden;" vertex="1" parent="TO1YHMDLFjacRHkBEr9m-196">
          <mxGeometry x="40" width="20" height="20" as="geometry">
            <mxRectangle width="20" height="20" as="alternateBounds" />
          </mxGeometry>
        </mxCell>
        <mxCell id="TO1YHMDLFjacRHkBEr9m-200" value="" style="endArrow=none;html=1;rounded=0;entryX=0.815;entryY=0.15;entryDx=0;entryDy=0;entryPerimeter=0;exitX=0;exitY=0.6;exitDx=0;exitDy=0;exitPerimeter=0;" edge="1" parent="1" source="TO1YHMDLFjacRHkBEr9m-179" target="TO1YHMDLFjacRHkBEr9m-179">
          <mxGeometry width="50" height="50" relative="1" as="geometry">
            <mxPoint x="710" y="740" as="sourcePoint" />
            <mxPoint x="760" y="690" as="targetPoint" />
          </mxGeometry>
        </mxCell>
        <mxCell id="TO1YHMDLFjacRHkBEr9m-201" value="" style="shape=table;html=1;whiteSpace=wrap;startSize=0;container=1;collapsible=0;childLayout=tableLayout;fillColor=#1ba1e2;fontColor=#ffffff;strokeColor=#006EAF;" vertex="1" parent="1">
          <mxGeometry x="650" y="590" width="60" height="20" as="geometry" />
        </mxCell>
        <mxCell id="TO1YHMDLFjacRHkBEr9m-202" value="" style="shape=tableRow;horizontal=0;startSize=0;swimlaneHead=0;swimlaneBody=0;top=0;left=0;bottom=0;right=0;collapsible=0;dropTarget=0;fillColor=none;points=[[0,0.5],[1,0.5]];portConstraint=eastwest;" vertex="1" parent="TO1YHMDLFjacRHkBEr9m-201">
          <mxGeometry width="60" height="20" as="geometry" />
        </mxCell>
        <mxCell id="TO1YHMDLFjacRHkBEr9m-203" value="" style="shape=partialRectangle;html=1;whiteSpace=wrap;connectable=0;fillColor=#dae8fc;top=0;left=0;bottom=0;right=0;overflow=hidden;strokeColor=#6c8ebf;" vertex="1" parent="TO1YHMDLFjacRHkBEr9m-202">
          <mxGeometry width="20" height="20" as="geometry">
            <mxRectangle width="20" height="20" as="alternateBounds" />
          </mxGeometry>
        </mxCell>
        <mxCell id="TO1YHMDLFjacRHkBEr9m-204" value="" style="shape=partialRectangle;html=1;whiteSpace=wrap;connectable=0;fillColor=#d5e8d4;top=0;left=0;bottom=0;right=0;overflow=hidden;strokeColor=#82b366;" vertex="1" parent="TO1YHMDLFjacRHkBEr9m-202">
          <mxGeometry x="20" width="20" height="20" as="geometry">
            <mxRectangle width="20" height="20" as="alternateBounds" />
          </mxGeometry>
        </mxCell>
        <mxCell id="TO1YHMDLFjacRHkBEr9m-205" value="？" style="shape=partialRectangle;html=1;whiteSpace=wrap;connectable=0;top=0;left=0;bottom=0;right=0;overflow=hidden;" vertex="1" parent="TO1YHMDLFjacRHkBEr9m-202">
          <mxGeometry x="40" width="20" height="20" as="geometry">
            <mxRectangle width="20" height="20" as="alternateBounds" />
          </mxGeometry>
        </mxCell>
        <mxCell id="TO1YHMDLFjacRHkBEr9m-206" value="" style="shape=table;html=1;whiteSpace=wrap;startSize=0;container=1;collapsible=0;childLayout=tableLayout;fillColor=#1ba1e2;fontColor=#ffffff;strokeColor=#006EAF;" vertex="1" parent="1">
          <mxGeometry x="720" y="550" width="60" height="20" as="geometry" />
        </mxCell>
        <mxCell id="TO1YHMDLFjacRHkBEr9m-207" value="" style="shape=tableRow;horizontal=0;startSize=0;swimlaneHead=0;swimlaneBody=0;top=0;left=0;bottom=0;right=0;collapsible=0;dropTarget=0;fillColor=none;points=[[0,0.5],[1,0.5]];portConstraint=eastwest;" vertex="1" parent="TO1YHMDLFjacRHkBEr9m-206">
          <mxGeometry width="60" height="20" as="geometry" />
        </mxCell>
        <mxCell id="TO1YHMDLFjacRHkBEr9m-208" value="" style="shape=partialRectangle;html=1;whiteSpace=wrap;connectable=0;fillColor=#dae8fc;top=0;left=0;bottom=0;right=0;overflow=hidden;strokeColor=#6c8ebf;" vertex="1" parent="TO1YHMDLFjacRHkBEr9m-207">
          <mxGeometry width="20" height="20" as="geometry">
            <mxRectangle width="20" height="20" as="alternateBounds" />
          </mxGeometry>
        </mxCell>
        <mxCell id="TO1YHMDLFjacRHkBEr9m-209" value="" style="shape=partialRectangle;html=1;whiteSpace=wrap;connectable=0;fillColor=#d5e8d4;top=0;left=0;bottom=0;right=0;overflow=hidden;strokeColor=#82b366;" vertex="1" parent="TO1YHMDLFjacRHkBEr9m-207">
          <mxGeometry x="20" width="20" height="20" as="geometry">
            <mxRectangle width="20" height="20" as="alternateBounds" />
          </mxGeometry>
        </mxCell>
        <mxCell id="TO1YHMDLFjacRHkBEr9m-210" value="？" style="shape=partialRectangle;html=1;whiteSpace=wrap;connectable=0;top=0;left=0;bottom=0;right=0;overflow=hidden;" vertex="1" parent="TO1YHMDLFjacRHkBEr9m-207">
          <mxGeometry x="40" width="20" height="20" as="geometry">
            <mxRectangle width="20" height="20" as="alternateBounds" />
          </mxGeometry>
        </mxCell>
        <mxCell id="TO1YHMDLFjacRHkBEr9m-213" value="" style="curved=1;endArrow=classic;html=1;rounded=0;fontSize=17;exitX=0.5;exitY=0;exitDx=0;exitDy=0;entryX=0.59;entryY=-0.02;entryDx=0;entryDy=0;entryPerimeter=0;" edge="1" parent="1" source="TO1YHMDLFjacRHkBEr9m-179" target="TO1YHMDLFjacRHkBEr9m-100">
          <mxGeometry width="50" height="50" relative="1" as="geometry">
            <mxPoint x="730" y="430" as="sourcePoint" />
            <mxPoint x="930" y="470" as="targetPoint" />
            <Array as="points">
              <mxPoint x="670" y="370" />
              <mxPoint x="580" y="370" />
            </Array>
          </mxGeometry>
        </mxCell>
        <mxCell id="TO1YHMDLFjacRHkBEr9m-215" value="训练" style="text;html=1;strokeColor=none;fillColor=none;align=center;verticalAlign=middle;whiteSpace=wrap;rounded=0;fontSize=17;" vertex="1" parent="1">
          <mxGeometry x="565" y="340" width="60" height="30" as="geometry" />
        </mxCell>
        <mxCell id="TO1YHMDLFjacRHkBEr9m-218" value="" style="shape=table;html=1;whiteSpace=wrap;startSize=0;container=1;collapsible=0;childLayout=tableLayout;fillColor=#1ba1e2;fontColor=#ffffff;strokeColor=#006EAF;" vertex="1" parent="1">
          <mxGeometry x="250" y="540" width="60" height="20" as="geometry" />
        </mxCell>
        <mxCell id="TO1YHMDLFjacRHkBEr9m-219" value="" style="shape=tableRow;horizontal=0;startSize=0;swimlaneHead=0;swimlaneBody=0;top=0;left=0;bottom=0;right=0;collapsible=0;dropTarget=0;fillColor=none;points=[[0,0.5],[1,0.5]];portConstraint=eastwest;" vertex="1" parent="TO1YHMDLFjacRHkBEr9m-218">
          <mxGeometry width="60" height="20" as="geometry" />
        </mxCell>
        <mxCell id="TO1YHMDLFjacRHkBEr9m-220" value="" style="shape=partialRectangle;html=1;whiteSpace=wrap;connectable=0;fillColor=#dae8fc;top=0;left=0;bottom=0;right=0;overflow=hidden;strokeColor=#6c8ebf;" vertex="1" parent="TO1YHMDLFjacRHkBEr9m-219">
          <mxGeometry width="20" height="20" as="geometry">
            <mxRectangle width="20" height="20" as="alternateBounds" />
          </mxGeometry>
        </mxCell>
        <mxCell id="TO1YHMDLFjacRHkBEr9m-221" value="" style="shape=partialRectangle;html=1;whiteSpace=wrap;connectable=0;fillColor=#d5e8d4;top=0;left=0;bottom=0;right=0;overflow=hidden;strokeColor=#82b366;" vertex="1" parent="TO1YHMDLFjacRHkBEr9m-219">
          <mxGeometry x="20" width="20" height="20" as="geometry">
            <mxRectangle width="20" height="20" as="alternateBounds" />
          </mxGeometry>
        </mxCell>
        <mxCell id="TO1YHMDLFjacRHkBEr9m-222" value="" style="shape=partialRectangle;html=1;whiteSpace=wrap;connectable=0;top=0;left=0;bottom=0;right=0;overflow=hidden;" vertex="1" parent="TO1YHMDLFjacRHkBEr9m-219">
          <mxGeometry x="40" width="20" height="20" as="geometry">
            <mxRectangle width="20" height="20" as="alternateBounds" />
          </mxGeometry>
        </mxCell>
        <mxCell id="TO1YHMDLFjacRHkBEr9m-223" value="" style="shape=table;html=1;whiteSpace=wrap;startSize=0;container=1;collapsible=0;childLayout=tableLayout;fillColor=#1ba1e2;fontColor=#ffffff;strokeColor=#006EAF;" vertex="1" parent="1">
          <mxGeometry x="165" y="550" width="60" height="20" as="geometry" />
        </mxCell>
        <mxCell id="TO1YHMDLFjacRHkBEr9m-224" value="" style="shape=tableRow;horizontal=0;startSize=0;swimlaneHead=0;swimlaneBody=0;top=0;left=0;bottom=0;right=0;collapsible=0;dropTarget=0;fillColor=none;points=[[0,0.5],[1,0.5]];portConstraint=eastwest;" vertex="1" parent="TO1YHMDLFjacRHkBEr9m-223">
          <mxGeometry width="60" height="20" as="geometry" />
        </mxCell>
        <mxCell id="TO1YHMDLFjacRHkBEr9m-225" value="" style="shape=partialRectangle;html=1;whiteSpace=wrap;connectable=0;fillColor=#dae8fc;top=0;left=0;bottom=0;right=0;overflow=hidden;strokeColor=#6c8ebf;" vertex="1" parent="TO1YHMDLFjacRHkBEr9m-224">
          <mxGeometry width="20" height="20" as="geometry">
            <mxRectangle width="20" height="20" as="alternateBounds" />
          </mxGeometry>
        </mxCell>
        <mxCell id="TO1YHMDLFjacRHkBEr9m-226" value="" style="shape=partialRectangle;html=1;whiteSpace=wrap;connectable=0;fillColor=#d5e8d4;top=0;left=0;bottom=0;right=0;overflow=hidden;strokeColor=#82b366;" vertex="1" parent="TO1YHMDLFjacRHkBEr9m-224">
          <mxGeometry x="20" width="20" height="20" as="geometry">
            <mxRectangle width="20" height="20" as="alternateBounds" />
          </mxGeometry>
        </mxCell>
        <mxCell id="TO1YHMDLFjacRHkBEr9m-227" value="" style="shape=partialRectangle;html=1;whiteSpace=wrap;connectable=0;fillColor=#f0a30a;top=0;left=0;bottom=0;right=0;overflow=hidden;fontColor=#000000;strokeColor=#BD7000;" vertex="1" parent="TO1YHMDLFjacRHkBEr9m-224">
          <mxGeometry x="40" width="20" height="20" as="geometry">
            <mxRectangle width="20" height="20" as="alternateBounds" />
          </mxGeometry>
        </mxCell>
        <mxCell id="TO1YHMDLFjacRHkBEr9m-228" value="" style="shape=table;html=1;whiteSpace=wrap;startSize=0;container=1;collapsible=0;childLayout=tableLayout;fillColor=#1ba1e2;fontColor=#ffffff;strokeColor=#006EAF;" vertex="1" parent="1">
          <mxGeometry x="620" y="540" width="60" height="20" as="geometry" />
        </mxCell>
        <mxCell id="TO1YHMDLFjacRHkBEr9m-229" value="" style="shape=tableRow;horizontal=0;startSize=0;swimlaneHead=0;swimlaneBody=0;top=0;left=0;bottom=0;right=0;collapsible=0;dropTarget=0;fillColor=none;points=[[0,0.5],[1,0.5]];portConstraint=eastwest;" vertex="1" parent="TO1YHMDLFjacRHkBEr9m-228">
          <mxGeometry width="60" height="20" as="geometry" />
        </mxCell>
        <mxCell id="TO1YHMDLFjacRHkBEr9m-230" value="" style="shape=partialRectangle;html=1;whiteSpace=wrap;connectable=0;fillColor=#dae8fc;top=0;left=0;bottom=0;right=0;overflow=hidden;strokeColor=#6c8ebf;" vertex="1" parent="TO1YHMDLFjacRHkBEr9m-229">
          <mxGeometry width="20" height="20" as="geometry">
            <mxRectangle width="20" height="20" as="alternateBounds" />
          </mxGeometry>
        </mxCell>
        <mxCell id="TO1YHMDLFjacRHkBEr9m-231" value="" style="shape=partialRectangle;html=1;whiteSpace=wrap;connectable=0;fillColor=#d5e8d4;top=0;left=0;bottom=0;right=0;overflow=hidden;strokeColor=#82b366;" vertex="1" parent="TO1YHMDLFjacRHkBEr9m-229">
          <mxGeometry x="20" width="20" height="20" as="geometry">
            <mxRectangle width="20" height="20" as="alternateBounds" />
          </mxGeometry>
        </mxCell>
        <mxCell id="TO1YHMDLFjacRHkBEr9m-232" value="？" style="shape=partialRectangle;html=1;whiteSpace=wrap;connectable=0;top=0;left=0;bottom=0;right=0;overflow=hidden;" vertex="1" parent="TO1YHMDLFjacRHkBEr9m-229">
          <mxGeometry x="40" width="20" height="20" as="geometry">
            <mxRectangle width="20" height="20" as="alternateBounds" />
          </mxGeometry>
        </mxCell>
        <mxCell id="TO1YHMDLFjacRHkBEr9m-233" value="" style="shape=table;html=1;whiteSpace=wrap;startSize=0;container=1;collapsible=0;childLayout=tableLayout;fillColor=#1ba1e2;fontColor=#ffffff;strokeColor=#006EAF;" vertex="1" parent="1">
          <mxGeometry x="690" y="500" width="60" height="20" as="geometry" />
        </mxCell>
        <mxCell id="TO1YHMDLFjacRHkBEr9m-234" value="" style="shape=tableRow;horizontal=0;startSize=0;swimlaneHead=0;swimlaneBody=0;top=0;left=0;bottom=0;right=0;collapsible=0;dropTarget=0;fillColor=none;points=[[0,0.5],[1,0.5]];portConstraint=eastwest;" vertex="1" parent="TO1YHMDLFjacRHkBEr9m-233">
          <mxGeometry width="60" height="20" as="geometry" />
        </mxCell>
        <mxCell id="TO1YHMDLFjacRHkBEr9m-235" value="" style="shape=partialRectangle;html=1;whiteSpace=wrap;connectable=0;fillColor=#dae8fc;top=0;left=0;bottom=0;right=0;overflow=hidden;strokeColor=#6c8ebf;" vertex="1" parent="TO1YHMDLFjacRHkBEr9m-234">
          <mxGeometry width="20" height="20" as="geometry">
            <mxRectangle width="20" height="20" as="alternateBounds" />
          </mxGeometry>
        </mxCell>
        <mxCell id="TO1YHMDLFjacRHkBEr9m-236" value="" style="shape=partialRectangle;html=1;whiteSpace=wrap;connectable=0;fillColor=#d5e8d4;top=0;left=0;bottom=0;right=0;overflow=hidden;strokeColor=#82b366;" vertex="1" parent="TO1YHMDLFjacRHkBEr9m-234">
          <mxGeometry x="20" width="20" height="20" as="geometry">
            <mxRectangle width="20" height="20" as="alternateBounds" />
          </mxGeometry>
        </mxCell>
        <mxCell id="TO1YHMDLFjacRHkBEr9m-237" value="？" style="shape=partialRectangle;html=1;whiteSpace=wrap;connectable=0;top=0;left=0;bottom=0;right=0;overflow=hidden;" vertex="1" parent="TO1YHMDLFjacRHkBEr9m-234">
          <mxGeometry x="40" width="20" height="20" as="geometry">
            <mxRectangle width="20" height="20" as="alternateBounds" />
          </mxGeometry>
        </mxCell>
        <mxCell id="TO1YHMDLFjacRHkBEr9m-238" value="项目p" style="text;html=1;strokeColor=none;fillColor=none;align=center;verticalAlign=middle;whiteSpace=wrap;rounded=0;fontSize=17;" vertex="1" parent="1">
          <mxGeometry x="160" y="260" width="60" height="30" as="geometry" />
        </mxCell>
        <mxCell id="TO1YHMDLFjacRHkBEr9m-239" value="目标项目 t" style="text;html=1;strokeColor=none;fillColor=none;align=center;verticalAlign=middle;whiteSpace=wrap;rounded=0;fontSize=17;" vertex="1" parent="1">
          <mxGeometry x="650" y="640" width="121" height="30" as="geometry" />
        </mxCell>
        <mxCell id="TO1YHMDLFjacRHkBEr9m-240" value="源项目 s" style="text;html=1;strokeColor=none;fillColor=none;align=center;verticalAlign=middle;whiteSpace=wrap;rounded=0;fontSize=17;" vertex="1" parent="1">
          <mxGeometry x="170" y="628" width="90" height="30" as="geometry" />
        </mxCell>
        <mxCell id="TO1YHMDLFjacRHkBEr9m-241" value="(a) 项目内bug定位" style="text;html=1;strokeColor=none;fillColor=none;align=center;verticalAlign=middle;whiteSpace=wrap;rounded=0;fontSize=17;" vertex="1" parent="1">
          <mxGeometry x="120" y="300" width="170" height="30" as="geometry" />
        </mxCell>
        <mxCell id="TO1YHMDLFjacRHkBEr9m-242" value="(b) 跨项目bug定位" style="text;html=1;strokeColor=none;fillColor=none;align=center;verticalAlign=middle;whiteSpace=wrap;rounded=0;fontSize=17;" vertex="1" parent="1">
          <mxGeometry x="130" y="660" width="170" height="30" as="geometry" />
        </mxCell>
        <mxCell id="TO1YHMDLFjacRHkBEr9m-243" value="" style="endArrow=none;dashed=1;html=1;dashPattern=1 3;strokeWidth=2;rounded=0;fontSize=17;" edge="1" parent="1">
          <mxGeometry width="50" height="50" relative="1" as="geometry">
            <mxPoint x="110" y="344" as="sourcePoint" />
            <mxPoint x="780" y="340" as="targetPoint" />
          </mxGeometry>
        </mxCell>
      </root>
    </mxGraphModel>
  </diagram>
</mxfile>
